<svg xmlns="http://www.w3.org/2000/svg" width="600" height="320">
<rect width="600" height="320" fill="#1e1e1e"/>
<rect x="40" y="40" width="520" height="240" fill="none" stroke="#aaaaaa" stroke-width="2"/>
<circle cx="70" cy="70" r="3" fill="#555"/>
<circle cx="90" cy="70" r="3" fill="#555"/>
<circle cx="110" cy="70" r="3" fill="#555"/>
<circle cx="130" cy="70" r="3" fill="#555"/>
<circle cx="150" cy="70" r="3" fill="#555"/>
<circle cx="170" cy="70" r="3" fill="#555"/>
<circle cx="190" cy="70" r="3" fill="#555"/>
<circle cx="210" cy="70" r="3" fill="#555"/>
<circle cx="230" cy="70" r="3" fill="#555"/>
<circle cx="250" cy="70" r="3" fill="#555"/>
<circle cx="270" cy="70" r="3" fill="#555"/>
<circle cx="290" cy="70" r="3" fill="#555"/>
<circle cx="310" cy="70" r="3" fill="#555"/>
<circle cx="330" cy="70" r="3" fill="#555"/>
<circle cx="350" cy="70" r="3" fill="#555"/>
<circle cx="370" cy="70" r="3" fill="#555"/>
<circle cx="390" cy="70" r="3" fill="#555"/>
<circle cx="410" cy="70" r="3" fill="#555"/>
<circle cx="430" cy="70" r="3" fill="#555"/>
<circle cx="450" cy="70" r="3" fill="#555"/>
<circle cx="470" cy="70" r="3" fill="#555"/>
<circle cx="490" cy="70" r="3" fill="#555"/>
<circle cx="510" cy="70" r="3" fill="#555"/>
<circle cx="530" cy="70" r="3" fill="#555"/>
<circle cx="70" cy="90" r="3" fill="#555"/>
<circle cx="90" cy="90" r="3" fill="#555"/>
<circle cx="110" cy="90" r="3" fill="#555"/>
<circle cx="130" cy="90" r="3" fill="#555"/>
<circle cx="150" cy="90" r="3" fill="#555"/>
<circle cx="170" cy="90" r="3" fill="#555"/>
<circle cx="190" cy="90" r="3" fill="#555"/>
<circle cx="210" cy="90" r="3" fill="#555"/>
<circle cx="230" cy="90" r="3" fill="#555"/>
<circle cx="250" cy="90" r="3" fill="#555"/>
<circle cx="270" cy="90" r="3" fill="#555"/>
<circle cx="290" cy="90" r="3" fill="#555"/>
<circle cx="310" cy="90" r="3" fill="#555"/>
<circle cx="330" cy="90" r="3" fill="#555"/>
<circle cx="350" cy="90" r="3" fill="#555"/>
<circle cx="370" cy="90" r="3" fill="#555"/>
<circle cx="390" cy="90" r="3" fill="#555"/>
<circle cx="410" cy="90" r="3" fill="#555"/>
<circle cx="430" cy="90" r="3" fill="#555"/>
<circle cx="450" cy="90" r="3" fill="#555"/>
<circle cx="470" cy="90" r="3" fill="#555"/>
<circle cx="490" cy="90" r="3" fill="#555"/>
<circle cx="510" cy="90" r="3" fill="#555"/>
<circle cx="530" cy="90" r="3" fill="#555"/>
<circle cx="70" cy="110" r="3" fill="#555"/>
<circle cx="90" cy="110" r="3" fill="#555"/>
<circle cx="110" cy="110" r="3" fill="#555"/>
<circle cx="130" cy="110" r="3" fill="#555"/>
<circle cx="150" cy="110" r="3" fill="#555"/>
<circle cx="170" cy="110" r="3" fill="#555"/>
<circle cx="190" cy="110" r="3" fill="#555"/>
<circle cx="210" cy="110" r="3" fill="#555"/>
<circle cx="230" cy="110" r="3" fill="#555"/>
<circle cx="250" cy="110" r="3" fill="#555"/>
<circle cx="270" cy="110" r="3" fill="#555"/>
<circle cx="290" cy="110" r="3" fill="#555"/>
<circle cx="310" cy="110" r="3" fill="#555"/>
<circle cx="330" cy="110" r="3" fill="#555"/>
<circle cx="350" cy="110" r="3" fill="#555"/>
<circle cx="370" cy="110" r="3" fill="#555"/>
<circle cx="390" cy="110" r="3" fill="#555"/>
<circle cx="410" cy="110" r="3" fill="#555"/>
<circle cx="430" cy="110" r="3" fill="#555"/>
<circle cx="450" cy="110" r="3" fill="#555"/>
<circle cx="470" cy="110" r="3" fill="#555"/>
<circle cx="490" cy="110" r="3" fill="#555"/>
<circle cx="510" cy="110" r="3" fill="#555"/>
<circle cx="530" cy="110" r="3" fill="#555"/>
<circle cx="70" cy="130" r="3" fill="#555"/>
<circle cx="90" cy="130" r="3" fill="#555"/>
<circle cx="110" cy="130" r="3" fill="#555"/>
<circle cx="130" cy="130" r="3" fill="#555"/>
<circle cx="150" cy="130" r="3" fill="#555"/>
<circle cx="170" cy="130" r="3" fill="#555"/>
<circle cx="190" cy="130" r="3" fill="#555"/>
<circle cx="210" cy="130" r="3" fill="#555"/>
<circle cx="230" cy="130" r="3" fill="#555"/>
<circle cx="250" cy="130" r="3" fill="#555"/>
<circle cx="270" cy="130" r="3" fill="#555"/>
<circle cx="290" cy="130" r="3" fill="#555"/>
<circle cx="310" cy="130" r="3" fill="#555"/>
<circle cx="330" cy="130" r="3" fill="#555"/>
<circle cx="350" cy="130" r="3" fill="#555"/>
<circle cx="370" cy="130" r="3" fill="#555"/>
<circle cx="390" cy="130" r="3" fill="#555"/>
<circle cx="410" cy="130" r="3" fill="#555"/>
<circle cx="430" cy="130" r="3" fill="#555"/>
<circle cx="450" cy="130" r="3" fill="#555"/>
<circle cx="470" cy="130" r="3" fill="#555"/>
<circle cx="490" cy="130" r="3" fill="#555"/>
<circle cx="510" cy="130" r="3" fill="#555"/>
<circle cx="530" cy="130" r="3" fill="#555"/>
<circle cx="70" cy="150" r="3" fill="#555"/>
<circle cx="90" cy="150" r="3" fill="#555"/>
<circle cx="110" cy="150" r="3" fill="#555"/>
<circle cx="130" cy="150" r="3" fill="#555"/>
<circle cx="150" cy="150" r="3" fill="#555"/>
<circle cx="170" cy="150" r="3" fill="#555"/>
<circle cx="190" cy="150" r="3" fill="#555"/>
<circle cx="210" cy="150" r="3" fill="#555"/>
<circle cx="230" cy="150" r="3" fill="#555"/>
<circle cx="250" cy="150" r="3" fill="#555"/>
<circle cx="270" cy="150" r="3" fill="#555"/>
<circle cx="290" cy="150" r="3" fill="#555"/>
<circle cx="310" cy="150" r="3" fill="#555"/>
<circle cx="330" cy="150" r="3" fill="#555"/>
<circle cx="350" cy="150" r="3" fill="#555"/>
<circle cx="370" cy="150" r="3" fill="#555"/>
<circle cx="390" cy="150" r="3" fill="#555"/>
<circle cx="410" cy="150" r="3" fill="#555"/>
<circle cx="430" cy="150" r="3" fill="#555"/>
<circle cx="450" cy="150" r="3" fill="#555"/>
<circle cx="470" cy="150" r="3" fill="#555"/>
<circle cx="490" cy="150" r="3" fill="#555"/>
<circle cx="510" cy="150" r="3" fill="#555"/>
<circle cx="530" cy="150" r="3" fill="#555"/>
<circle cx="70" cy="170" r="3" fill="#555"/>
<circle cx="90" cy="170" r="3" fill="#555"/>
<circle cx="110" cy="170" r="3" fill="#555"/>
<circle cx="130" cy="170" r="3" fill="#555"/>
<circle cx="150" cy="170" r="3" fill="#555"/>
<circle cx="170" cy="170" r="3" fill="#555"/>
<circle cx="190" cy="170" r="3" fill="#555"/>
<circle cx="210" cy="170" r="3" fill="#555"/>
<circle cx="230" cy="170" r="3" fill="#555"/>
<circle cx="250" cy="170" r="3" fill="#555"/>
<circle cx="270" cy="170" r="3" fill="#555"/>
<circle cx="290" cy="170" r="3" fill="#555"/>
<circle cx="310" cy="170" r="3" fill="#555"/>
<circle cx="330" cy="170" r="3" fill="#555"/>
<circle cx="350" cy="170" r="3" fill="#555"/>
<circle cx="370" cy="170" r="3" fill="#555"/>
<circle cx="390" cy="170" r="3" fill="#555"/>
<circle cx="410" cy="170" r="3" fill="#555"/>
<circle cx="430" cy="170" r="3" fill="#555"/>
<circle cx="450" cy="170" r="3" fill="#555"/>
<circle cx="470" cy="170" r="3" fill="#555"/>
<circle cx="490" cy="170" r="3" fill="#555"/>
<circle cx="510" cy="170" r="3" fill="#555"/>
<circle cx="530" cy="170" r="3" fill="#555"/>
<circle cx="70" cy="190" r="3" fill="#555"/>
<circle cx="90" cy="190" r="3" fill="#555"/>
<circle cx="110" cy="190" r="3" fill="#555"/>
<circle cx="130" cy="190" r="3" fill="#555"/>
<circle cx="150" cy="190" r="3" fill="#555"/>
<circle cx="170" cy="190" r="3" fill="#555"/>
<circle cx="190" cy="190" r="3" fill="#555"/>
<circle cx="210" cy="190" r="3" fill="#555"/>
<circle cx="230" cy="190" r="3" fill="#555"/>
<circle cx="250" cy="190" r="3" fill="#555"/>
<circle cx="270" cy="190" r="3" fill="#555"/>
<circle cx="290" cy="190" r="3" fill="#555"/>
<circle cx="310" cy="190" r="3" fill="#555"/>
<circle cx="330" cy="190" r="3" fill="#555"/>
<circle cx="350" cy="190" r="3" fill="#555"/>
<circle cx="370" cy="190" r="3" fill="#555"/>
<circle cx="390" cy="190" r="3" fill="#555"/>
<circle cx="410" cy="190" r="3" fill="#555"/>
<circle cx="430" cy="190" r="3" fill="#555"/>
<circle cx="450" cy="190" r="3" fill="#555"/>
<circle cx="470" cy="190" r="3" fill="#555"/>
<circle cx="490" cy="190" r="3" fill="#555"/>
<circle cx="510" cy="190" r="3" fill="#555"/>
<circle cx="530" cy="190" r="3" fill="#555"/>
<circle cx="70" cy="210" r="3" fill="#555"/>
<circle cx="90" cy="210" r="3" fill="#555"/>
<circle cx="110" cy="210" r="3" fill="#555"/>
<circle cx="130" cy="210" r="3" fill="#555"/>
<circle cx="150" cy="210" r="3" fill="#555"/>
<circle cx="170" cy="210" r="3" fill="#555"/>
<circle cx="190" cy="210" r="3" fill="#555"/>
<circle cx="210" cy="210" r="3" fill="#555"/>
<circle cx="230" cy="210" r="3" fill="#555"/>
<circle cx="250" cy="210" r="3" fill="#555"/>
<circle cx="270" cy="210" r="3" fill="#555"/>
<circle cx="290" cy="210" r="3" fill="#555"/>
<circle cx="310" cy="210" r="3" fill="#555"/>
<circle cx="330" cy="210" r="3" fill="#555"/>
<circle cx="350" cy="210" r="3" fill="#555"/>
<circle cx="370" cy="210" r="3" fill="#555"/>
<circle cx="390" cy="210" r="3" fill="#555"/>
<circle cx="410" cy="210" r="3" fill="#555"/>
<circle cx="430" cy="210" r="3" fill="#555"/>
<circle cx="450" cy="210" r="3" fill="#555"/>
<circle cx="470" cy="210" r="3" fill="#555"/>
<circle cx="490" cy="210" r="3" fill="#555"/>
<circle cx="510" cy="210" r="3" fill="#555"/>
<circle cx="530" cy="210" r="3" fill="#555"/>
<circle cx="70" cy="230" r="3" fill="#555"/>
<circle cx="90" cy="230" r="3" fill="#555"/>
<circle cx="110" cy="230" r="3" fill="#555"/>
<circle cx="130" cy="230" r="3" fill="#555"/>
<circle cx="150" cy="230" r="3" fill="#555"/>
<circle cx="170" cy="230" r="3" fill="#555"/>
<circle cx="190" cy="230" r="3" fill="#555"/>
<circle cx="210" cy="230" r="3" fill="#555"/>
<circle cx="230" cy="230" r="3" fill="#555"/>
<circle cx="250" cy="230" r="3" fill="#555"/>
<circle cx="270" cy="230" r="3" fill="#555"/>
<circle cx="290" cy="230" r="3" fill="#555"/>
<circle cx="310" cy="230" r="3" fill="#555"/>
<circle cx="330" cy="230" r="3" fill="#555"/>
<circle cx="350" cy="230" r="3" fill="#555"/>
<circle cx="370" cy="230" r="3" fill="#555"/>
<circle cx="390" cy="230" r="3" fill="#555"/>
<circle cx="410" cy="230" r="3" fill="#555"/>
<circle cx="430" cy="230" r="3" fill="#555"/>
<circle cx="450" cy="230" r="3" fill="#555"/>
<circle cx="470" cy="230" r="3" fill="#555"/>
<circle cx="490" cy="230" r="3" fill="#555"/>
<circle cx="510" cy="230" r="3" fill="#555"/>
<circle cx="530" cy="230" r="3" fill="#555"/>
<circle cx="70" cy="250" r="3" fill="#555"/>
<circle cx="90" cy="250" r="3" fill="#555"/>
<circle cx="110" cy="250" r="3" fill="#555"/>
<circle cx="130" cy="250" r="3" fill="#555"/>
<circle cx="150" cy="250" r="3" fill="#555"/>
<circle cx="170" cy="250" r="3" fill="#555"/>
<circle cx="190" cy="250" r="3" fill="#555"/>
<circle cx="210" cy="250" r="3" fill="#555"/>
<circle cx="230" cy="250" r="3" fill="#555"/>
<circle cx="250" cy="250" r="3" fill="#555"/>
<circle cx="270" cy="250" r="3" fill="#555"/>
<circle cx="290" cy="250" r="3" fill="#555"/>
<circle cx="310" cy="250" r="3" fill="#555"/>
<circle cx="330" cy="250" r="3" fill="#555"/>
<circle cx="350" cy="250" r="3" fill="#555"/>
<circle cx="370" cy="250" r="3" fill="#555"/>
<circle cx="390" cy="250" r="3" fill="#555"/>
<circle cx="410" cy="250" r="3" fill="#555"/>
<circle cx="430" cy="250" r="3" fill="#555"/>
<circle cx="450" cy="250" r="3" fill="#555"/>
<circle cx="470" cy="250" r="3" fill="#555"/>
<circle cx="490" cy="250" r="3" fill="#555"/>
<circle cx="510" cy="250" r="3" fill="#555"/>
<circle cx="530" cy="250" r="3" fill="#555"/>
<rect x="61" y="61" width="238" height="198" fill="none" stroke="#888888" stroke-width="1" stroke-dasharray="4,3"/>
<rect x="461" y="61" width="78" height="198" fill="none" stroke="#888888" stroke-width="1" stroke-dasharray="4,3"/>
<rect x="321" y="61" width="58" height="58" fill="none" stroke="#888888" stroke-width="1" stroke-dasharray="4,3"/>
<rect x="381" y="61" width="58" height="58" fill="none" stroke="#888888" stroke-width="1" stroke-dasharray="4,3"/>
<rect x="321" y="121" width="58" height="58" fill="none" stroke="#888888" stroke-width="1" stroke-dasharray="4,3"/>
<rect x="341" y="221" width="58" height="18" fill="none" stroke="#888888" stroke-width="1" stroke-dasharray="4,3"/>
<circle cx="70" cy="110" r="5" fill="#55ff55" fill-opacity="0.8"/>
<circle cx="70" cy="130" r="5" fill="#55ff55" fill-opacity="0.8"/>
<circle cx="70" cy="150" r="5" fill="#55ff55" fill-opacity="0.8"/>
<circle cx="70" cy="170" r="5" fill="#55ff55" fill-opacity="0.8"/>
<circle cx="70" cy="190" r="5" fill="#55ff55" fill-opacity="0.8"/>
<circle cx="70" cy="210" r="5" fill="#55ff55" fill-opacity="0.8"/>
<circle cx="70" cy="230" r="5" fill="#55ff55" fill-opacity="0.8"/>
<circle cx="70" cy="250" r="5" fill="#55ff55" fill-opacity="0.8"/>
<circle cx="290" cy="250" r="5" fill="#55ff55" fill-opacity="0.8"/>
<circle cx="290" cy="230" r="5" fill="#55ff55" fill-opacity="0.8"/>
<circle cx="290" cy="210" r="5" fill="#55ff55" fill-opacity="0.8"/>
<circle cx="290" cy="190" r="5" fill="#55ff55" fill-opacity="0.8"/>
<circle cx="290" cy="170" r="5" fill="#55ff55" fill-opacity="0.8"/>
<circle cx="290" cy="150" r="5" fill="#55ff55" fill-opacity="0.8"/>
<circle cx="290" cy="130" r="5" fill="#55ff55" fill-opacity="0.8"/>
<circle cx="290" cy="110" r="5" fill="#55ff55" fill-opacity="0.8"/>
<circle cx="470" cy="70" r="5" fill="#55ff55" fill-opacity="0.8"/>
<circle cx="490" cy="70" r="5" fill="#55ff55" fill-opacity="0.8"/>
<circle cx="510" cy="70" r="5" fill="#55ff55" fill-opacity="0.8"/>
<circle cx="530" cy="70" r="5" fill="#55ff55" fill-opacity="0.8"/>
<circle cx="330" cy="70" r="5" fill="#55ff55" fill-opacity="0.8"/>
<circle cx="330" cy="110" r="5" fill="#55ff55" fill-opacity="0.8"/>
<circle cx="370" cy="70" r="5" fill="#55ff55" fill-opacity="0.8"/>
<circle cx="370" cy="110" r="5" fill="#55ff55" fill-opacity="0.8"/>
<circle cx="390" cy="70" r="5" fill="#55ff55" fill-opacity="0.8"/>
<circle cx="390" cy="110" r="5" fill="#55ff55" fill-opacity="0.8"/>
<circle cx="430" cy="70" r="5" fill="#55ff55" fill-opacity="0.8"/>
<circle cx="430" cy="110" r="5" fill="#55ff55" fill-opacity="0.8"/>
<circle cx="330" cy="130" r="5" fill="#55ff55" fill-opacity="0.8"/>
<circle cx="330" cy="170" r="5" fill="#55ff55" fill-opacity="0.8"/>
<circle cx="370" cy="130" r="5" fill="#55ff55" fill-opacity="0.8"/>
<circle cx="370" cy="170" r="5" fill="#55ff55" fill-opacity="0.8"/>
<circle cx="350" cy="230" r="5" fill="#55ff55" fill-opacity="0.8"/>
<circle cx="370" cy="230" r="5" fill="#55ff55" fill-opacity="0.8"/>
<circle cx="390" cy="230" r="5" fill="#55ff55" fill-opacity="0.8"/>
<text x="70" y="104" fill="#ffffff" font-size="10" text-anchor="middle" font-family="monospace">U1</text>
<text x="470" y="64" fill="#ffffff" font-size="10" text-anchor="middle" font-family="monospace">U2</text>
<text x="330" y="64" fill="#ffffff" font-size="10" text-anchor="middle" font-family="monospace">SW1</text>
<text x="390" y="64" fill="#ffffff" font-size="10" text-anchor="middle" font-family="monospace">SW2</text>
<text x="330" y="124" fill="#ffffff" font-size="10" text-anchor="middle" font-family="monospace">SW3</text>
<text x="350" y="224" fill="#ffffff" font-size="10" text-anchor="middle" font-family="monospace">J1</text>
</svg>
