<svg xmlns="http://www.w3.org/2000/svg" width="600" height="320">
<rect width="600" height="320" fill="#1e1e1e"/>
<rect x="40" y="40" width="520" height="240" fill="none" stroke="#aaaaaa" stroke-width="2"/>
<line x1="70" y1="40" x2="70" y2="34" stroke="#cccccc" stroke-width="1"/>
<text x="70" y="32" fill="#cccccc" font-size="10" text-anchor="middle" font-family="monospace">0</text>
<line x1="90" y1="40" x2="90" y2="34" stroke="#cccccc" stroke-width="1"/>
<text x="90" y="32" fill="#cccccc" font-size="10" text-anchor="middle" font-family="monospace">1</text>
<line x1="110" y1="40" x2="110" y2="34" stroke="#cccccc" stroke-width="1"/>
<text x="110" y="32" fill="#cccccc" font-size="10" text-anchor="middle" font-family="monospace">2</text>
<line x1="130" y1="40" x2="130" y2="34" stroke="#cccccc" stroke-width="1"/>
<text x="130" y="32" fill="#cccccc" font-size="10" text-anchor="middle" font-family="monospace">3</text>
<line x1="150" y1="40" x2="150" y2="34" stroke="#cccccc" stroke-width="1"/>
<text x="150" y="32" fill="#cccccc" font-size="10" text-anchor="middle" font-family="monospace">4</text>
<line x1="170" y1="40" x2="170" y2="34" stroke="#cccccc" stroke-width="1"/>
<text x="170" y="32" fill="#cccccc" font-size="10" text-anchor="middle" font-family="monospace">5</text>
<line x1="190" y1="40" x2="190" y2="34" stroke="#cccccc" stroke-width="1"/>
<text x="190" y="32" fill="#cccccc" font-size="10" text-anchor="middle" font-family="monospace">6</text>
<line x1="210" y1="40" x2="210" y2="34" stroke="#cccccc" stroke-width="1"/>
<text x="210" y="32" fill="#cccccc" font-size="10" text-anchor="middle" font-family="monospace">7</text>
<line x1="230" y1="40" x2="230" y2="34" stroke="#cccccc" stroke-width="1"/>
<text x="230" y="32" fill="#cccccc" font-size="10" text-anchor="middle" font-family="monospace">8</text>
<line x1="250" y1="40" x2="250" y2="34" stroke="#cccccc" stroke-width="1"/>
<text x="250" y="32" fill="#cccccc" font-size="10" text-anchor="middle" font-family="monospace">9</text>
<line x1="270" y1="40" x2="270" y2="34" stroke="#cccccc" stroke-width="1"/>
<text x="270" y="32" fill="#cccccc" font-size="10" text-anchor="middle" font-family="monospace">10</text>
<line x1="290" y1="40" x2="290" y2="34" stroke="#cccccc" stroke-width="1"/>
<text x="290" y="32" fill="#cccccc" font-size="10" text-anchor="middle" font-family="monospace">11</text>
<line x1="310" y1="40" x2="310" y2="34" stroke="#cccccc" stroke-width="1"/>
<text x="310" y="32" fill="#cccccc" font-size="10" text-anchor="middle" font-family="monospace">12</text>
<line x1="330" y1="40" x2="330" y2="34" stroke="#cccccc" stroke-width="1"/>
<text x="330" y="32" fill="#cccccc" font-size="10" text-anchor="middle" font-family="monospace">13</text>
<line x1="350" y1="40" x2="350" y2="34" stroke="#cccccc" stroke-width="1"/>
<text x="350" y="32" fill="#cccccc" font-size="10" text-anchor="middle" font-family="monospace">14</text>
<line x1="370" y1="40" x2="370" y2="34" stroke="#cccccc" stroke-width="1"/>
<text x="370" y="32" fill="#cccccc" font-size="10" text-anchor="middle" font-family="monospace">15</text>
<line x1="390" y1="40" x2="390" y2="34" stroke="#cccccc" stroke-width="1"/>
<text x="390" y="32" fill="#cccccc" font-size="10" text-anchor="middle" font-family="monospace">16</text>
<line x1="410" y1="40" x2="410" y2="34" stroke="#cccccc" stroke-width="1"/>
<text x="410" y="32" fill="#cccccc" font-size="10" text-anchor="middle" font-family="monospace">17</text>
<line x1="430" y1="40" x2="430" y2="34" stroke="#cccccc" stroke-width="1"/>
<text x="430" y="32" fill="#cccccc" font-size="10" text-anchor="middle" font-family="monospace">18</text>
<line x1="450" y1="40" x2="450" y2="34" stroke="#cccccc" stroke-width="1"/>
<text x="450" y="32" fill="#cccccc" font-size="10" text-anchor="middle" font-family="monospace">19</text>
<line x1="470" y1="40" x2="470" y2="34" stroke="#cccccc" stroke-width="1"/>
<text x="470" y="32" fill="#cccccc" font-size="10" text-anchor="middle" font-family="monospace">20</text>
<line x1="490" y1="40" x2="490" y2="34" stroke="#cccccc" stroke-width="1"/>
<text x="490" y="32" fill="#cccccc" font-size="10" text-anchor="middle" font-family="monospace">21</text>
<line x1="510" y1="40" x2="510" y2="34" stroke="#cccccc" stroke-width="1"/>
<text x="510" y="32" fill="#cccccc" font-size="10" text-anchor="middle" font-family="monospace">22</text>
<line x1="530" y1="40" x2="530" y2="34" stroke="#cccccc" stroke-width="1"/>
<text x="530" y="32" fill="#cccccc" font-size="10" text-anchor="middle" font-family="monospace">23</text>
<line x1="40" y1="70" x2="34" y2="70" stroke="#cccccc" stroke-width="1"/>
<text x="32" y="73" fill="#cccccc" font-size="10" text-anchor="end" font-family="monospace">0</text>
<line x1="40" y1="90" x2="34" y2="90" stroke="#cccccc" stroke-width="1"/>
<text x="32" y="93" fill="#cccccc" font-size="10" text-anchor="end" font-family="monospace">1</text>
<line x1="40" y1="110" x2="34" y2="110" stroke="#cccccc" stroke-width="1"/>
<text x="32" y="113" fill="#cccccc" font-size="10" text-anchor="end" font-family="monospace">2</text>
<line x1="40" y1="130" x2="34" y2="130" stroke="#cccccc" stroke-width="1"/>
<text x="32" y="133" fill="#cccccc" font-size="10" text-anchor="end" font-family="monospace">3</text>
<line x1="40" y1="150" x2="34" y2="150" stroke="#cccccc" stroke-width="1"/>
<text x="32" y="153" fill="#cccccc" font-size="10" text-anchor="end" font-family="monospace">4</text>
<line x1="40" y1="170" x2="34" y2="170" stroke="#cccccc" stroke-width="1"/>
<text x="32" y="173" fill="#cccccc" font-size="10" text-anchor="end" font-family="monospace">5</text>
<line x1="40" y1="190" x2="34" y2="190" stroke="#cccccc" stroke-width="1"/>
<text x="32" y="193" fill="#cccccc" font-size="10" text-anchor="end" font-family="monospace">6</text>
<line x1="40" y1="210" x2="34" y2="210" stroke="#cccccc" stroke-width="1"/>
<text x="32" y="213" fill="#cccccc" font-size="10" text-anchor="end" font-family="monospace">7</text>
<line x1="40" y1="230" x2="34" y2="230" stroke="#cccccc" stroke-width="1"/>
<text x="32" y="233" fill="#cccccc" font-size="10" text-anchor="end" font-family="monospace">8</text>
<line x1="40" y1="250" x2="34" y2="250" stroke="#cccccc" stroke-width="1"/>
<text x="32" y="253" fill="#cccccc" font-size="10" text-anchor="end" font-family="monospace">9</text>
<circle cx="70" cy="70" r="3" fill="#555"/>
<circle cx="90" cy="70" r="3" fill="#555"/>
<circle cx="110" cy="70" r="3" fill="#555"/>
<circle cx="130" cy="70" r="3" fill="#555"/>
<circle cx="150" cy="70" r="3" fill="#555"/>
<circle cx="170" cy="70" r="3" fill="#555"/>
<circle cx="190" cy="70" r="3" fill="#555"/>
<circle cx="210" cy="70" r="3" fill="#555"/>
<circle cx="230" cy="70" r="3" fill="#555"/>
<circle cx="250" cy="70" r="3" fill="#555"/>
<circle cx="270" cy="70" r="3" fill="#555"/>
<circle cx="290" cy="70" r="3" fill="#555"/>
<circle cx="310" cy="70" r="3" fill="#555"/>
<circle cx="330" cy="70" r="3" fill="#555"/>
<circle cx="350" cy="70" r="3" fill="#555"/>
<circle cx="370" cy="70" r="3" fill="#555"/>
<circle cx="390" cy="70" r="3" fill="#555"/>
<circle cx="410" cy="70" r="3" fill="#555"/>
<circle cx="430" cy="70" r="3" fill="#555"/>
<circle cx="450" cy="70" r="3" fill="#555"/>
<circle cx="470" cy="70" r="3" fill="#555"/>
<circle cx="490" cy="70" r="3" fill="#555"/>
<circle cx="510" cy="70" r="3" fill="#555"/>
<circle cx="530" cy="70" r="3" fill="#555"/>
<circle cx="70" cy="90" r="3" fill="#555"/>
<circle cx="90" cy="90" r="3" fill="#555"/>
<circle cx="110" cy="90" r="3" fill="#555"/>
<circle cx="130" cy="90" r="3" fill="#555"/>
<circle cx="150" cy="90" r="3" fill="#555"/>
<circle cx="170" cy="90" r="3" fill="#555"/>
<circle cx="190" cy="90" r="3" fill="#555"/>
<circle cx="210" cy="90" r="3" fill="#555"/>
<circle cx="230" cy="90" r="3" fill="#555"/>
<circle cx="250" cy="90" r="3" fill="#555"/>
<circle cx="270" cy="90" r="3" fill="#555"/>
<circle cx="290" cy="90" r="3" fill="#555"/>
<circle cx="310" cy="90" r="3" fill="#555"/>
<circle cx="330" cy="90" r="3" fill="#555"/>
<circle cx="350" cy="90" r="3" fill="#555"/>
<circle cx="370" cy="90" r="3" fill="#555"/>
<circle cx="390" cy="90" r="3" fill="#555"/>
<circle cx="410" cy="90" r="3" fill="#555"/>
<circle cx="430" cy="90" r="3" fill="#555"/>
<circle cx="450" cy="90" r="3" fill="#555"/>
<circle cx="470" cy="90" r="3" fill="#555"/>
<circle cx="490" cy="90" r="3" fill="#555"/>
<circle cx="510" cy="90" r="3" fill="#555"/>
<circle cx="530" cy="90" r="3" fill="#555"/>
<circle cx="70" cy="110" r="3" fill="#555"/>
<circle cx="90" cy="110" r="3" fill="#555"/>
<circle cx="110" cy="110" r="3" fill="#555"/>
<circle cx="130" cy="110" r="3" fill="#555"/>
<circle cx="150" cy="110" r="3" fill="#555"/>
<circle cx="170" cy="110" r="3" fill="#555"/>
<circle cx="190" cy="110" r="3" fill="#555"/>
<circle cx="210" cy="110" r="3" fill="#555"/>
<circle cx="230" cy="110" r="3" fill="#555"/>
<circle cx="250" cy="110" r="3" fill="#555"/>
<circle cx="270" cy="110" r="3" fill="#555"/>
<circle cx="290" cy="110" r="3" fill="#555"/>
<circle cx="310" cy="110" r="3" fill="#555"/>
<circle cx="330" cy="110" r="3" fill="#555"/>
<circle cx="350" cy="110" r="3" fill="#555"/>
<circle cx="370" cy="110" r="3" fill="#555"/>
<circle cx="390" cy="110" r="3" fill="#555"/>
<circle cx="410" cy="110" r="3" fill="#555"/>
<circle cx="430" cy="110" r="3" fill="#555"/>
<circle cx="450" cy="110" r="3" fill="#555"/>
<circle cx="470" cy="110" r="3" fill="#555"/>
<circle cx="490" cy="110" r="3" fill="#555"/>
<circle cx="510" cy="110" r="3" fill="#555"/>
<circle cx="530" cy="110" r="3" fill="#555"/>
<circle cx="70" cy="130" r="3" fill="#555"/>
<circle cx="90" cy="130" r="3" fill="#555"/>
<circle cx="110" cy="130" r="3" fill="#555"/>
<circle cx="130" cy="130" r="3" fill="#555"/>
<circle cx="150" cy="130" r="3" fill="#555"/>
<circle cx="170" cy="130" r="3" fill="#555"/>
<circle cx="190" cy="130" r="3" fill="#555"/>
<circle cx="210" cy="130" r="3" fill="#555"/>
<circle cx="230" cy="130" r="3" fill="#555"/>
<circle cx="250" cy="130" r="3" fill="#555"/>
<circle cx="270" cy="130" r="3" fill="#555"/>
<circle cx="290" cy="130" r="3" fill="#555"/>
<circle cx="310" cy="130" r="3" fill="#555"/>
<circle cx="330" cy="130" r="3" fill="#555"/>
<circle cx="350" cy="130" r="3" fill="#555"/>
<circle cx="370" cy="130" r="3" fill="#555"/>
<circle cx="390" cy="130" r="3" fill="#555"/>
<circle cx="410" cy="130" r="3" fill="#555"/>
<circle cx="430" cy="130" r="3" fill="#555"/>
<circle cx="450" cy="130" r="3" fill="#555"/>
<circle cx="470" cy="130" r="3" fill="#555"/>
<circle cx="490" cy="130" r="3" fill="#555"/>
<circle cx="510" cy="130" r="3" fill="#555"/>
<circle cx="530" cy="130" r="3" fill="#555"/>
<circle cx="70" cy="150" r="3" fill="#555"/>
<circle cx="90" cy="150" r="3" fill="#555"/>
<circle cx="110" cy="150" r="3" fill="#555"/>
<circle cx="130" cy="150" r="3" fill="#555"/>
<circle cx="150" cy="150" r="3" fill="#555"/>
<circle cx="170" cy="150" r="3" fill="#555"/>
<circle cx="190" cy="150" r="3" fill="#555"/>
<circle cx="210" cy="150" r="3" fill="#555"/>
<circle cx="230" cy="150" r="3" fill="#555"/>
<circle cx="250" cy="150" r="3" fill="#555"/>
<circle cx="270" cy="150" r="3" fill="#555"/>
<circle cx="290" cy="150" r="3" fill="#555"/>
<circle cx="310" cy="150" r="3" fill="#555"/>
<circle cx="330" cy="150" r="3" fill="#555"/>
<circle cx="350" cy="150" r="3" fill="#555"/>
<circle cx="370" cy="150" r="3" fill="#555"/>
<circle cx="390" cy="150" r="3" fill="#555"/>
<circle cx="410" cy="150" r="3" fill="#555"/>
<circle cx="430" cy="150" r="3" fill="#555"/>
<circle cx="450" cy="150" r="3" fill="#555"/>
<circle cx="470" cy="150" r="3" fill="#555"/>
<circle cx="490" cy="150" r="3" fill="#555"/>
<circle cx="510" cy="150" r="3" fill="#555"/>
<circle cx="530" cy="150" r="3" fill="#555"/>
<circle cx="70" cy="170" r="3" fill="#555"/>
<circle cx="90" cy="170" r="3" fill="#555"/>
<circle cx="110" cy="170" r="3" fill="#555"/>
<circle cx="130" cy="170" r="3" fill="#555"/>
<circle cx="150" cy="170" r="3" fill="#555"/>
<circle cx="170" cy="170" r="3" fill="#555"/>
<circle cx="190" cy="170" r="3" fill="#555"/>
<circle cx="210" cy="170" r="3" fill="#555"/>
<circle cx="230" cy="170" r="3" fill="#555"/>
<circle cx="250" cy="170" r="3" fill="#555"/>
<circle cx="270" cy="170" r="3" fill="#555"/>
<circle cx="290" cy="170" r="3" fill="#555"/>
<circle cx="310" cy="170" r="3" fill="#555"/>
<circle cx="330" cy="170" r="3" fill="#555"/>
<circle cx="350" cy="170" r="3" fill="#555"/>
<circle cx="370" cy="170" r="3" fill="#555"/>
<circle cx="390" cy="170" r="3" fill="#555"/>
<circle cx="410" cy="170" r="3" fill="#555"/>
<circle cx="430" cy="170" r="3" fill="#555"/>
<circle cx="450" cy="170" r="3" fill="#555"/>
<circle cx="470" cy="170" r="3" fill="#555"/>
<circle cx="490" cy="170" r="3" fill="#555"/>
<circle cx="510" cy="170" r="3" fill="#555"/>
<circle cx="530" cy="170" r="3" fill="#555"/>
<circle cx="70" cy="190" r="3" fill="#555"/>
<circle cx="90" cy="190" r="3" fill="#555"/>
<circle cx="110" cy="190" r="3" fill="#555"/>
<circle cx="130" cy="190" r="3" fill="#555"/>
<circle cx="150" cy="190" r="3" fill="#555"/>
<circle cx="170" cy="190" r="3" fill="#555"/>
<circle cx="190" cy="190" r="3" fill="#555"/>
<circle cx="210" cy="190" r="3" fill="#555"/>
<circle cx="230" cy="190" r="3" fill="#555"/>
<circle cx="250" cy="190" r="3" fill="#555"/>
<circle cx="270" cy="190" r="3" fill="#555"/>
<circle cx="290" cy="190" r="3" fill="#555"/>
<circle cx="310" cy="190" r="3" fill="#555"/>
<circle cx="330" cy="190" r="3" fill="#555"/>
<circle cx="350" cy="190" r="3" fill="#555"/>
<circle cx="370" cy="190" r="3" fill="#555"/>
<circle cx="390" cy="190" r="3" fill="#555"/>
<circle cx="410" cy="190" r="3" fill="#555"/>
<circle cx="430" cy="190" r="3" fill="#555"/>
<circle cx="450" cy="190" r="3" fill="#555"/>
<circle cx="470" cy="190" r="3" fill="#555"/>
<circle cx="490" cy="190" r="3" fill="#555"/>
<circle cx="510" cy="190" r="3" fill="#555"/>
<circle cx="530" cy="190" r="3" fill="#555"/>
<circle cx="70" cy="210" r="3" fill="#555"/>
<circle cx="90" cy="210" r="3" fill="#555"/>
<circle cx="110" cy="210" r="3" fill="#555"/>
<circle cx="130" cy="210" r="3" fill="#555"/>
<circle cx="150" cy="210" r="3" fill="#555"/>
<circle cx="170" cy="210" r="3" fill="#555"/>
<circle cx="190" cy="210" r="3" fill="#555"/>
<circle cx="210" cy="210" r="3" fill="#555"/>
<circle cx="230" cy="210" r="3" fill="#555"/>
<circle cx="250" cy="210" r="3" fill="#555"/>
<circle cx="270" cy="210" r="3" fill="#555"/>
<circle cx="290" cy="210" r="3" fill="#555"/>
<circle cx="310" cy="210" r="3" fill="#555"/>
<circle cx="330" cy="210" r="3" fill="#555"/>
<circle cx="350" cy="210" r="3" fill="#555"/>
<circle cx="370" cy="210" r="3" fill="#555"/>
<circle cx="390" cy="210" r="3" fill="#555"/>
<circle cx="410" cy="210" r="3" fill="#555"/>
<circle cx="430" cy="210" r="3" fill="#555"/>
<circle cx="450" cy="210" r="3" fill="#555"/>
<circle cx="470" cy="210" r="3" fill="#555"/>
<circle cx="490" cy="210" r="3" fill="#555"/>
<circle cx="510" cy="210" r="3" fill="#555"/>
<circle cx="530" cy="210" r="3" fill="#555"/>
<circle cx="70" cy="230" r="3" fill="#555"/>
<circle cx="90" cy="230" r="3" fill="#555"/>
<circle cx="110" cy="230" r="3" fill="#555"/>
<circle cx="130" cy="230" r="3" fill="#555"/>
<circle cx="150" cy="230" r="3" fill="#555"/>
<circle cx="170" cy="230" r="3" fill="#555"/>
<circle cx="190" cy="230" r="3" fill="#555"/>
<circle cx="210" cy="230" r="3" fill="#555"/>
<circle cx="230" cy="230" r="3" fill="#555"/>
<circle cx="250" cy="230" r="3" fill="#555"/>
<circle cx="270" cy="230" r="3" fill="#555"/>
<circle cx="290" cy="230" r="3" fill="#555"/>
<circle cx="310" cy="230" r="3" fill="#555"/>
<circle cx="330" cy="230" r="3" fill="#555"/>
<circle cx="350" cy="230" r="3" fill="#555"/>
<circle cx="370" cy="230" r="3" fill="#555"/>
<circle cx="390" cy="230" r="3" fill="#555"/>
<circle cx="410" cy="230" r="3" fill="#555"/>
<circle cx="430" cy="230" r="3" fill="#555"/>
<circle cx="450" cy="230" r="3" fill="#555"/>
<circle cx="470" cy="230" r="3" fill="#555"/>
<circle cx="490" cy="230" r="3" fill="#555"/>
<circle cx="510" cy="230" r="3" fill="#555"/>
<circle cx="530" cy="230" r="3" fill="#555"/>
<circle cx="70" cy="250" r="3" fill="#555"/>
<circle cx="90" cy="250" r="3" fill="#555"/>
<circle cx="110" cy="250" r="3" fill="#555"/>
<circle cx="130" cy="250" r="3" fill="#555"/>
<circle cx="150" cy="250" r="3" fill="#555"/>
<circle cx="170" cy="250" r="3" fill="#555"/>
<circle cx="190" cy="250" r="3" fill="#555"/>
<circle cx="210" cy="250" r="3" fill="#555"/>
<circle cx="230" cy="250" r="3" fill="#555"/>
<circle cx="250" cy="250" r="3" fill="#555"/>
<circle cx="270" cy="250" r="3" fill="#555"/>
<circle cx="290" cy="250" r="3" fill="#555"/>
<circle cx="310" cy="250" r="3" fill="#555"/>
<circle cx="330" cy="250" r="3" fill="#555"/>
<circle cx="350" cy="250" r="3" fill="#555"/>
<circle cx="370" cy="250" r="3" fill="#555"/>
<circle cx="390" cy="250" r="3" fill="#555"/>
<circle cx="410" cy="250" r="3" fill="#555"/>
<circle cx="430" cy="250" r="3" fill="#555"/>
<circle cx="450" cy="250" r="3" fill="#555"/>
<circle cx="470" cy="250" r="3" fill="#555"/>
<circle cx="490" cy="250" r="3" fill="#555"/>
<circle cx="510" cy="250" r="3" fill="#555"/>
<circle cx="530" cy="250" r="3" fill="#555"/>
<rect x="61" y="61" width="238" height="198" fill="none" stroke="#888888" stroke-width="1" stroke-dasharray="4,3"/>
<rect x="461" y="61" width="78" height="198" fill="none" stroke="#888888" stroke-width="1" stroke-dasharray="4,3"/>
<rect x="321" y="61" width="58" height="58" fill="none" stroke="#888888" stroke-width="1" stroke-dasharray="4,3"/>
<rect x="381" y="61" width="58" height="58" fill="none" stroke="#888888" stroke-width="1" stroke-dasharray="4,3"/>
<rect x="321" y="121" width="58" height="58" fill="none" stroke="#888888" stroke-width="1" stroke-dasharray="4,3"/>
<rect x="321" y="221" width="58" height="18" fill="none" stroke="#888888" stroke-width="1" stroke-dasharray="4,3"/>
<polyline points="290,250 470,250 470,70" fill="none" stroke="#33aaff" stroke-width="3" stroke-linecap="round"/>
<polyline points="370,70 370,110 370,130 370,170 370,230 370,250" fill="none" stroke="#33aaff" stroke-width="3" stroke-linecap="round"/>
<polyline points="470,70 430,70 430,110" fill="none" stroke="#33aaff" stroke-width="3" stroke-linecap="round"/>
<polyline points="490,250 490,70" fill="none" stroke="#33aaff" stroke-width="3" stroke-linecap="round"/>
<polyline points="530,70 530,170" fill="none" stroke="#33aaff" stroke-width="3" stroke-linecap="round"/>
<polyline points="510,70 510,150" fill="none" stroke="#33aaff" stroke-width="3" stroke-linecap="round"/>
<path d="M 70 250 Q 280.0 274.0 490 250" fill="none" stroke="#ff0000" stroke-width="3" stroke-linecap="round" stroke-dasharray="6,4"/>
<path d="M 290 170 Q 410.0 194.0 530 170" fill="none" stroke="#ffff00" stroke-width="3" stroke-linecap="round" stroke-dasharray="6,4"/>
<path d="M 290 150 Q 400.0 174.0 510 150" fill="none" stroke="#0000ff" stroke-width="3" stroke-linecap="round" stroke-dasharray="6,4"/>
<path d="M 290 110 Q 287.2 177.6 330 230" fill="none" stroke="#ffa500" stroke-width="3" stroke-linecap="round" stroke-dasharray="6,4"/>
<path d="M 290 130 Q 299.4 192.3 350 230" fill="none" stroke="#00ffff" stroke-width="3" stroke-linecap="round" stroke-dasharray="6,4"/>
<circle cx="70" cy="110" r="5" fill="#55ff55" fill-opacity="0.8"/>
<circle cx="70" cy="130" r="5" fill="#55ff55" fill-opacity="0.8"/>
<circle cx="70" cy="150" r="5" fill="#55ff55" fill-opacity="0.8"/>
<circle cx="70" cy="170" r="5" fill="#55ff55" fill-opacity="0.8"/>
<circle cx="70" cy="190" r="5" fill="#55ff55" fill-opacity="0.8"/>
<circle cx="70" cy="210" r="5" fill="#55ff55" fill-opacity="0.8"/>
<circle cx="70" cy="230" r="5" fill="#55ff55" fill-opacity="0.8"/>
<circle cx="70" cy="250" r="5" fill="#55ff55" fill-opacity="0.8"/>
<circle cx="290" cy="250" r="5" fill="#55ff55" fill-opacity="0.8"/>
<circle cx="290" cy="230" r="5" fill="#55ff55" fill-opacity="0.8"/>
<circle cx="290" cy="210" r="5" fill="#55ff55" fill-opacity="0.8"/>
<circle cx="290" cy="190" r="5" fill="#55ff55" fill-opacity="0.8"/>
<circle cx="290" cy="170" r="5" fill="#55ff55" fill-opacity="0.8"/>
<circle cx="290" cy="150" r="5" fill="#55ff55" fill-opacity="0.8"/>
<circle cx="290" cy="130" r="5" fill="#55ff55" fill-opacity="0.8"/>
<circle cx="290" cy="110" r="5" fill="#55ff55" fill-opacity="0.8"/>
<circle cx="470" cy="70" r="5" fill="#55ff55" fill-opacity="0.8"/>
<circle cx="490" cy="70" r="5" fill="#55ff55" fill-opacity="0.8"/>
<circle cx="510" cy="70" r="5" fill="#55ff55" fill-opacity="0.8"/>
<circle cx="530" cy="70" r="5" fill="#55ff55" fill-opacity="0.8"/>
<circle cx="330" cy="70" r="5" fill="#55ff55" fill-opacity="0.8"/>
<circle cx="330" cy="110" r="5" fill="#55ff55" fill-opacity="0.8"/>
<circle cx="370" cy="70" r="5" fill="#55ff55" fill-opacity="0.8"/>
<circle cx="370" cy="110" r="5" fill="#55ff55" fill-opacity="0.8"/>
<circle cx="390" cy="70" r="5" fill="#55ff55" fill-opacity="0.8"/>
<circle cx="390" cy="110" r="5" fill="#55ff55" fill-opacity="0.8"/>
<circle cx="430" cy="70" r="5" fill="#55ff55" fill-opacity="0.8"/>
<circle cx="430" cy="110" r="5" fill="#55ff55" fill-opacity="0.8"/>
<circle cx="330" cy="130" r="5" fill="#55ff55" fill-opacity="0.8"/>
<circle cx="330" cy="170" r="5" fill="#55ff55" fill-opacity="0.8"/>
<circle cx="370" cy="130" r="5" fill="#55ff55" fill-opacity="0.8"/>
<circle cx="370" cy="170" r="5" fill="#55ff55" fill-opacity="0.8"/>
<circle cx="330" cy="230" r="5" fill="#55ff55" fill-opacity="0.8"/>
<circle cx="350" cy="230" r="5" fill="#55ff55" fill-opacity="0.8"/>
<circle cx="370" cy="230" r="5" fill="#55ff55" fill-opacity="0.8"/>
<text x="70" y="104" fill="#ffffff" font-size="10" text-anchor="middle" font-family="monospace">U1</text>
<text x="470" y="64" fill="#ffffff" font-size="10" text-anchor="middle" font-family="monospace">U2</text>
<text x="330" y="64" fill="#ffffff" font-size="10" text-anchor="middle" font-family="monospace">SW1</text>
<text x="390" y="64" fill="#ffffff" font-size="10" text-anchor="middle" font-family="monospace">SW2</text>
<text x="330" y="124" fill="#ffffff" font-size="10" text-anchor="middle" font-family="monospace">SW3</text>
<text x="330" y="224" fill="#ffffff" font-size="10" text-anchor="middle" font-family="monospace">J1</text>
</svg>
